<svg width="368" height="427" viewBox="0 0 368 427" fill="none" xmlns="http://www.w3.org/2000/svg">
<path d="M208.048 52.4729C190.875 48.5399 173.349 50.2615 160.025 53.3842C148.851 56.0032 137.87 61.3764 132.401 71.4661C119.653 94.9811 119.571 138.078 121.696 160.754C121.669 159.271 105.785 166.621 111.762 172.996C116.734 178.299 121.59 172.464 122.919 169.41C125.24 179.855 123.555 259.986 122.132 309.243C121.871 318.282 122.191 327.347 123.794 336.246C128.836 364.236 134.93 364.486 149.614 369.031C163.002 373.175 199.022 370.758 215.358 369.031C238.476 365.794 243.361 350.066 245.059 336.5C246.197 327.413 246.331 318.184 246.159 309.027C244.641 228.45 245.682 183.438 246.437 170.605C247.478 172.298 249.222 174.475 251.105 175.58C255.025 177.881 258.075 171.119 255.911 167.121C253.829 163.276 249.259 161.498 246.437 161.042C251.866 122.221 244.718 90.2434 236.46 72.7975C231.225 61.7375 219.975 55.2047 208.048 52.4729Z" fill="white"/>
<path d="M121.723 161.042C121.714 160.947 121.705 160.851 121.696 160.754M121.696 160.754C119.571 138.078 119.653 94.9811 132.401 71.4661C137.87 61.3764 148.851 56.0032 160.025 53.3842C173.349 50.2615 190.875 48.5399 208.048 52.4729C219.975 55.2047 231.225 61.7375 236.46 72.7975C244.718 90.2434 251.866 122.221 246.437 161.042C249.259 161.498 253.829 163.276 255.911 167.121C258.075 171.119 255.025 177.881 251.105 175.58C249.222 174.475 247.478 172.298 246.437 170.605C245.682 183.438 244.641 228.45 246.159 309.027C246.332 318.184 246.197 327.413 245.059 336.5C243.361 350.066 238.476 365.794 215.358 369.031C199.022 370.758 163.002 373.175 149.614 369.031C134.93 364.486 128.836 364.236 123.794 336.246C122.191 327.347 121.871 318.282 122.132 309.243C123.555 259.986 125.24 179.855 122.919 169.41C121.59 172.464 116.734 178.299 111.762 172.996C105.785 166.621 121.669 159.271 121.696 160.754Z" stroke="#C9C9C9"/>
<path d="M128.454 273.263C129.821 250.853 128.602 178.546 127.7 140.721C145.112 202.213 141.629 275.209 139.308 288.698C137.889 296.943 133.669 291.662 130.375 285.349C128.477 281.709 128.205 277.361 128.454 273.263Z" fill="#D7D7D7" fill-opacity="0.4" stroke="#C9C9C9"/>
<path d="M240.104 273.263C238.738 250.853 239.956 178.546 240.859 140.721C223.447 202.213 226.929 275.209 229.251 288.698C230.67 296.943 234.89 291.662 238.183 285.349C240.082 281.709 240.354 277.361 240.104 273.263Z" fill="#D7D7D7" fill-opacity="0.4" stroke="#C9C9C9"/>
<rect x="132.981" y="0.96875" width="104.19" height="36.4539" rx="3.5" fill="white" stroke="#C9C9C9"/>
<rect x="0.5" y="-0.5" width="104.19" height="36.4539" rx="3.5" transform="matrix(1 0 0 -1 132.482 425.806)" fill="white" stroke="#C9C9C9"/>
<path d="M345.045 59.2263C360.176 60.3313 352.878 75.0116 355.552 93.7567C344.662 93.7567 320.208 93.7567 320.208 123.946C320.208 148.098 344.662 151.505 356.89 150.189L354.024 288.705C342.051 288.903 318.336 295.217 319.253 318.895C320.17 342.573 339.886 345.598 349.63 344.151C349.375 345.795 347.987 351.768 344.471 362.502C340.077 375.919 335.492 372.565 325.748 375.327C317.953 377.537 314.476 372.828 313.712 370.197C307.904 370.67 302.249 367.895 300.147 366.448L294.607 365.264C295.677 361.16 292.76 342.638 291.168 333.891C269.388 283.97 272.827 287.521 269.961 243.322C267.669 207.963 289.64 154.004 300.912 131.444C309.318 79.1947 317.278 68.2371 320.208 69.2894C325.557 64.2381 330.206 59.5552 331.862 57.8451L345.045 59.2263Z" fill="white" stroke="#C9C9C9"/>
<path d="M344.281 144.756C356.546 144.756 366.516 134.483 366.516 121.776C366.516 109.068 356.546 98.7949 344.281 98.7949C332.016 98.7949 322.046 109.068 322.046 121.776C322.046 134.483 332.016 144.756 344.281 144.756Z" fill="#D7D7D7" fill-opacity="0.4" stroke="#C9C9C9"/>
<path d="M344.281 340.889C356.546 340.889 366.516 330.615 366.516 317.908C366.516 305.201 356.546 294.927 344.281 294.927C332.016 294.927 322.046 305.201 322.046 317.908C322.046 330.615 332.016 340.889 344.281 340.889Z" fill="#D7D7D7" fill-opacity="0.4" stroke="#C9C9C9"/>
<path d="M22.171 55.9491C7.03998 57.0541 14.338 71.7342 11.6634 90.4789C22.5531 90.4789 47.0073 90.4789 47.0073 120.668C47.0073 144.819 22.5531 148.226 10.326 146.91L13.1917 285.424C25.1641 285.622 48.8796 291.936 47.9626 315.613C47.0455 339.291 27.3293 342.316 17.5859 340.869C17.8406 342.514 19.2289 348.486 22.7442 359.219C27.1383 372.637 31.7234 369.282 41.4669 372.045C49.2617 374.255 52.7388 369.545 53.503 366.915C59.3109 367.388 64.9659 364.613 67.0674 363.166L72.6078 361.982C71.538 357.878 74.4546 339.357 76.0467 330.609C97.8262 280.689 94.3874 284.24 97.2531 240.042C99.5457 204.684 77.5751 150.725 66.3032 128.166C57.8971 75.9172 49.9367 64.9598 47.0073 66.0121C41.658 60.9609 37.0091 56.278 35.3534 54.5679L22.171 55.9491Z" fill="white" stroke="#C9C9C9"/>
<path d="M22.931 141.477C10.6662 141.477 0.69622 131.204 0.69622 118.497C0.69622 105.79 10.6662 95.5169 22.931 95.5169C35.1958 95.5169 45.1658 105.79 45.1658 118.497C45.1658 131.204 35.1958 141.477 22.931 141.477Z" fill="#D7D7D7" fill-opacity="0.4" stroke="#C9C9C9"/>
<path d="M22.931 337.607C10.6662 337.607 0.69622 327.333 0.69622 314.626C0.69622 301.919 10.6662 291.646 22.931 291.646C35.1958 291.646 45.1658 301.919 45.1658 314.626C45.1658 327.333 35.1958 337.607 22.931 337.607Z" fill="#D7D7D7" fill-opacity="0.4" stroke="#C9C9C9"/>
</svg>
