<svg width="17" height="17" viewBox="0 0 17 17" fill="none" xmlns="http://www.w3.org/2000/svg">
<g clip-path="url(#clip0_205_10363)">
<path d="M15.953 7.64102C15.8572 7.48477 14.9113 7.08508 14.9113 7.08508C15.0758 7.00196 15.1883 6.98477 15.1883 6.64102C15.1883 6.26602 15.1864 6.14102 14.9308 6.14102H14.0638C14.0603 6.13352 14.0565 6.12571 14.053 6.1179C13.4933 4.92227 13.4182 4.62008 12.5835 4.21321C11.4639 3.66852 9.3648 3.64102 8.54191 3.64102C7.71902 3.64102 5.61995 3.66852 4.50126 4.21321C3.66559 4.61946 3.68636 4.82852 3.03181 6.1179C3.03181 6.12133 3.02511 6.1304 3.01904 6.14102H2.15111C1.89747 6.14102 1.89555 6.26602 1.89555 6.64102C1.89555 6.98477 2.00799 7.00196 2.17251 7.08508C2.17251 7.08508 1.25858 7.51602 1.1308 7.64102C1.00302 7.76602 0.875244 8.64102 0.875244 10.141C0.875244 11.641 1.00302 13.141 1.00302 13.141H1.38444C1.38444 13.5785 1.45024 13.641 1.64191 13.641H4.19747C4.38913 13.641 4.45302 13.5785 4.45302 13.141H12.6308C12.6308 13.5785 12.6947 13.641 12.8864 13.641H15.5058C15.6336 13.641 15.6975 13.5473 15.6975 13.141H16.0808C16.0808 13.141 16.2086 11.6098 16.2086 10.141C16.2086 8.67227 16.0489 7.79727 15.953 7.64102ZM4.36549 9.0454C3.78369 9.10762 3.19892 9.13954 2.61366 9.14102C1.96136 9.14102 1.93899 9.18196 1.89299 8.78352C1.87569 8.60116 1.88116 8.41741 1.90929 8.23633L1.92941 8.14102H2.02524C2.40858 8.14102 2.76859 8.15696 3.44837 8.3529C3.79411 8.45439 4.11931 8.61361 4.40958 8.82352C4.54886 8.92227 4.5808 9.01602 4.5808 9.01602L4.36549 9.0454ZM12.2609 11.2954L12.1197 11.641H4.96413C4.96413 11.641 4.97659 11.622 4.80441 11.2916C4.67663 11.0473 4.83636 10.891 5.08904 10.8023C5.57842 10.6298 7.00858 10.141 8.54191 10.141C10.0752 10.141 11.5338 10.5623 12.0079 10.8023C12.1836 10.891 12.4018 10.9535 12.2609 11.2973V11.2954ZM4.05116 7.02883C3.94798 7.03466 3.84456 7.03539 3.7413 7.03102C3.82467 6.88602 3.87099 6.72446 3.95245 6.55571C4.20801 6.02446 4.5003 5.42321 5.02067 5.16977C5.77265 4.80352 7.33122 4.63852 8.54191 4.63852C9.7526 4.63852 11.3112 4.80227 12.0631 5.16977C12.5835 5.42321 12.8745 6.02477 13.1314 6.55571C13.2135 6.72602 13.2591 6.88883 13.3448 7.03477C13.2809 7.03821 13.2074 7.03477 13.032 7.02883H4.05116ZM15.1589 8.78227C15.0905 9.17227 15.1544 9.14102 14.4702 9.14102C13.8849 9.13954 13.3001 9.10762 12.7183 9.0454C12.6273 9.02946 12.6014 8.87915 12.6742 8.82352C12.963 8.61127 13.2887 8.45184 13.6355 8.3529C14.3152 8.15696 14.6979 8.13071 15.0758 8.14383C15.1012 8.14478 15.1253 8.15488 15.1436 8.17219C15.1618 8.1895 15.1728 8.21279 15.1745 8.23758C15.1926 8.41949 15.1873 8.60289 15.1589 8.78352V8.78227Z" fill="white"/>
</g>
<defs>
<clipPath id="clip0_205_10363">
<rect width="16" height="16" fill="white" transform="translate(0.208496 0.974365)"/>
</clipPath>
</defs>
</svg>
