<svg width="25" height="25" viewBox="0 0 25 25" fill="none" xmlns="http://www.w3.org/2000/svg">
<path d="M22.2539 8.65234C22.2539 5.06249 19.3438 2.15234 15.7539 2.15234C13.671 2.15234 11.817 3.13464 10.6274 4.65955C15.701 4.8557 19.7539 9.03072 19.7539 14.1523C19.7539 14.2627 19.752 14.3725 19.7483 14.4819L20.0806 14.5708C21.0469 14.8294 21.931 13.9453 21.6724 12.979L21.545 12.503C21.4421 12.1184 21.504 11.7122 21.6694 11.3501C22.0447 10.5283 22.2539 9.61476 22.2539 8.65234Z" fill="#3382F8"/>
<path fill-rule="evenodd" clip-rule="evenodd" d="M18.2539 14.1523C18.2539 18.5706 14.6722 22.1523 10.2539 22.1523C9.0184 22.1523 7.84831 21.8723 6.80366 21.3721C6.44461 21.2002 6.03784 21.1399 5.65329 21.2428L4.42725 21.5708C3.46092 21.8294 2.57686 20.9453 2.83542 19.979L3.16346 18.753C3.26635 18.3684 3.206 17.9616 3.03411 17.6026C2.53398 16.5579 2.25391 15.3878 2.25391 14.1523C2.25391 9.73407 5.83563 6.15234 10.2539 6.15234C14.6722 6.15234 18.2539 9.73407 18.2539 14.1523ZM6.75391 15.1523C7.30619 15.1523 7.75391 14.7046 7.75391 14.1523C7.75391 13.6001 7.30619 13.1523 6.75391 13.1523C6.20162 13.1523 5.75391 13.6001 5.75391 14.1523C5.75391 14.7046 6.20162 15.1523 6.75391 15.1523ZM10.2539 15.1523C10.8062 15.1523 11.2539 14.7046 11.2539 14.1523C11.2539 13.6001 10.8062 13.1523 10.2539 13.1523C9.70162 13.1523 9.25391 13.6001 9.25391 14.1523C9.25391 14.7046 9.70162 15.1523 10.2539 15.1523ZM13.7539 15.1523C14.3062 15.1523 14.7539 14.7046 14.7539 14.1523C14.7539 13.6001 14.3062 13.1523 13.7539 13.1523C13.2016 13.1523 12.7539 13.6001 12.7539 14.1523C12.7539 14.7046 13.2016 15.1523 13.7539 15.1523Z" fill="#3382F8"/>
</svg>
