<svg width="25" height="25" viewBox="0 0 25 25" fill="none" xmlns="http://www.w3.org/2000/svg">
<path fill-rule="evenodd" clip-rule="evenodd" d="M22.127 12.477C22.127 17.9998 17.6498 22.477 12.127 22.477C6.60411 22.477 2.12695 17.9998 2.12695 12.477C2.12695 6.95414 6.60411 2.47699 12.127 2.47699C17.6498 2.47699 22.127 6.95414 22.127 12.477ZM16.1573 9.44666C16.4502 9.73955 16.4502 10.2144 16.1573 10.5073L11.1573 15.5073C10.8644 15.8002 10.3895 15.8002 10.0966 15.5073L8.09662 13.5073C7.80373 13.2144 7.80373 12.7396 8.09662 12.4467C8.38952 12.1538 8.86439 12.1538 9.15728 12.4467L10.627 13.9163L12.8618 11.6815L15.0966 9.44666C15.3895 9.15377 15.8644 9.15377 16.1573 9.44666Z" fill="#4BD059"/>
</svg>
