<svg width="17" height="17" viewBox="0 0 17 17" fill="none" xmlns="http://www.w3.org/2000/svg">
<path d="M7.27163 13.2155C7.48376 13.05 7.67616 12.8576 8.06092 12.4728L12.9915 7.54228C12.3204 7.26298 11.5256 6.8042 10.774 6.05252C10.0222 5.30072 9.56335 4.50578 9.28407 3.83466L4.35341 8.76533L4.35338 8.76535C3.96863 9.1501 3.77624 9.3425 3.61079 9.55462C3.41561 9.80485 3.24828 10.0756 3.11175 10.3621C2.99601 10.6049 2.90997 10.863 2.7379 11.3793L1.83049 14.1015C1.74581 14.3555 1.81193 14.6356 2.00128 14.825C2.19063 15.0143 2.47071 15.0804 2.72475 14.9958L5.44698 14.0884C5.9632 13.9163 6.22132 13.8302 6.46417 13.7145C6.75065 13.578 7.0214 13.4106 7.27163 13.2155Z" fill="#41506B"/>
<path d="M14.3597 6.1741C15.3835 5.1503 15.3835 3.49039 14.3597 2.46658C13.3359 1.44278 11.676 1.44278 10.6522 2.46658L10.0608 3.05794C10.0689 3.08239 10.0773 3.10719 10.086 3.1323C10.3028 3.75706 10.7117 4.57607 11.4811 5.34541C12.2504 6.11475 13.0694 6.52372 13.6942 6.74047C13.7192 6.74915 13.7439 6.75751 13.7682 6.76557L14.3597 6.1741Z" fill="#41506B"/>
</svg>
