<svg width="25" height="25" viewBox="0 0 25 25" fill="none" xmlns="http://www.w3.org/2000/svg">
<path d="M9.90479 12.2725C9.90479 11.0298 10.9121 10.0225 12.1548 10.0225C13.3974 10.0225 14.4048 11.0298 14.4048 12.2725C14.4048 13.5151 13.3974 14.5225 12.1548 14.5225C10.9121 14.5225 9.90479 13.5151 9.90479 12.2725Z" fill="white"/>
<path fill-rule="evenodd" clip-rule="evenodd" d="M2.15479 12.2725C2.15479 13.9118 2.57975 14.4639 3.42968 15.5681C5.12675 17.7729 7.9729 20.2725 12.1548 20.2725C16.3367 20.2725 19.1828 17.7729 20.8799 15.5681C21.7298 14.4639 22.1548 13.9118 22.1548 12.2725C22.1548 10.6331 21.7298 10.081 20.8799 8.97679C19.1828 6.77202 16.3367 4.27246 12.1548 4.27246C7.9729 4.27246 5.12675 6.77202 3.42968 8.97679C2.57975 10.081 2.15479 10.6331 2.15479 12.2725ZM12.1548 8.52246C10.0837 8.52246 8.40479 10.2014 8.40479 12.2725C8.40479 14.3435 10.0837 16.0225 12.1548 16.0225C14.2259 16.0225 15.9048 14.3435 15.9048 12.2725C15.9048 10.2014 14.2259 8.52246 12.1548 8.52246Z" fill="white"/>
</svg>
