<svg width="25" height="25" viewBox="0 0 25 25" fill="none" xmlns="http://www.w3.org/2000/svg">
<path d="M18.917 4.7063C18.597 4.9663 18.127 4.9163 17.857 4.6063C17.517 4.1863 17.017 3.94629 16.477 3.94629H6.24704C5.26704 3.94629 4.45703 4.7463 4.45703 5.7363V15.9663C4.45703 16.4463 4.64703 16.8963 4.98703 17.2363C5.27703 17.5263 5.27703 17.9963 4.98703 18.2963C4.83703 18.4363 4.64703 18.5163 4.45703 18.5163C4.25703 18.5163 4.06703 18.4363 3.92703 18.2963C3.29703 17.6663 2.95703 16.8463 2.95703 15.9663V5.7363C2.95703 3.9263 4.43704 2.44629 6.24704 2.44629H16.477C17.467 2.44629 18.397 2.88631 19.017 3.64631C19.287 3.96631 19.237 4.4463 18.917 4.7063Z" fill="#060A0F"/>
<path d="M4.98703 17.2363C5.27703 17.5263 5.27703 17.9963 4.98703 18.2963C4.83703 18.4363 4.64703 18.5163 4.45703 18.5163C4.25703 18.5163 4.06703 18.4363 3.92703 18.2963C3.29703 17.6663 2.95703 16.8463 2.95703 15.9663V5.7363C2.95703 3.9263 4.43704 2.44629 6.24704 2.44629H16.477C17.467 2.44629 18.397 2.88631 19.017 3.64631C19.287 3.96631 19.237 4.4463 18.917 4.7063C18.597 4.9663 18.127 4.9163 17.857 4.6063C17.517 4.1863 17.017 3.94629 16.477 3.94629H6.24704C5.26704 3.94629 4.45703 4.7463 4.45703 5.7363V15.9663C4.45703 16.4463 4.64703 16.8963 4.98703 17.2363Z" fill="#060A0F"/>
<path d="M19.667 5.6362H9.43698C7.62698 5.6362 6.14697 7.1162 6.14697 8.9262V19.1562C6.14697 20.9662 7.62698 22.4462 9.43698 22.4462H19.667C21.477 22.4462 22.957 20.9662 22.957 19.1562V8.9262C22.957 7.1162 21.477 5.6362 19.667 5.6362ZM11.367 8.86621C12.127 8.86621 12.747 9.48619 12.747 10.2562C12.747 11.0262 12.127 11.6462 11.367 11.6462C10.597 11.6462 9.97696 11.0262 9.97696 10.2562C9.97696 9.48619 10.597 8.86621 11.367 8.86621ZM21.457 19.1562C21.457 20.1462 20.657 20.9462 19.667 20.9462H9.43698C8.44698 20.9462 7.64697 20.1462 7.64697 19.1562V18.8562L10.357 16.1562C10.557 15.9462 10.897 15.9462 11.097 16.1562L11.847 16.9062C12.607 17.6662 13.947 17.6662 14.707 16.9062L18.007 13.6062C18.207 13.4062 18.557 13.4062 18.757 13.6062L21.457 16.3062V19.1562Z" fill="#060A0F"/>
</svg>
