<svg width="17" height="17" viewBox="0 0 17 17" fill="none" xmlns="http://www.w3.org/2000/svg">
<path d="M8.27279 15.4009C11.9461 15.4009 14.9395 12.4075 14.9395 8.73421C14.9395 5.06088 11.9461 2.06754 8.27279 2.06754C4.59945 2.06754 1.60612 5.06088 1.60612 8.73421C1.60612 12.4075 4.59945 15.4009 8.27279 15.4009ZM8.27279 10.6809C8.54612 10.6809 8.77279 10.9009 8.77279 11.1809C8.77279 11.4542 8.54612 11.6809 8.27279 11.6809C7.99279 11.6809 7.77279 11.4542 7.77279 11.1809C7.77279 10.9009 7.99279 10.6809 8.27279 10.6809ZM7.77279 6.34754C7.77279 6.06754 7.99945 5.84754 8.27279 5.84754C8.54612 5.84754 8.77279 6.06754 8.77279 6.34754L8.77279 9.45421C8.77279 9.73421 8.54612 9.95421 8.27279 9.95421C7.99945 9.95421 7.77279 9.73421 7.77279 9.45421L7.77279 6.34754Z" fill="#41506B" fill-opacity="0.4"/>
</svg>
