<svg width="93" height="21" viewBox="0 0 93 21" fill="none" xmlns="http://www.w3.org/2000/svg">
<path d="M53.792 12.8295L47.8468 1.01075L43.0093 0.381226L51.0907 16.4453L53.792 12.8295Z" fill="#3382F8"/>
<path d="M56.9536 16.6566H40.8723L39.1235 20.3446H56.9536V16.6566Z" fill="#3382F8"/>
<path d="M40.2114 5.56807L34.9797 17.063L37.9246 20.2219L44.939 4.95435L40.2114 5.56807Z" fill="#3382F8"/>
<path d="M13.787 10.8697C13.7632 10.0642 13.1685 9.42455 12.4312 9.42455H4.81986C4.08251 9.42455 3.46409 10.0405 3.46409 10.846C3.46409 11.6516 4.08251 12.2912 4.81986 12.2912H12.8118C13.5967 12.2912 14.3103 12.5518 14.9287 13.0257C15 13.0731 15.0476 13.1204 15.119 13.1678C15.3092 13.3337 15.5947 13.6417 15.7612 13.926C16.2369 14.6367 16.4985 15.3948 16.4985 16.2951C16.4985 18.38 15 20.299 12.8118 20.299H4.43929C2.27481 20.299 0.72876 18.38 0.72876 16.2951H3.46409C3.46409 17.1006 4.08251 17.7403 4.81986 17.7403H12.4312C13.1448 17.7403 13.7632 17.1243 13.7632 16.2951C13.7632 15.4659 13.1448 14.8736 12.4312 14.8736H4.43929C3.1073 14.8736 1.91803 14.0681 1.29961 12.9072C0.942829 12.3623 0.72876 11.6042 0.72876 10.846C0.72876 8.80857 2.27481 6.84216 4.4155 6.84216H12.8118C14.9762 6.84216 16.5223 8.80857 16.5223 10.8697H13.787Z" fill="#060A0F"/>
<path d="M23.8716 11.1332L29.8893 6.84497H34.8367L27.6772 12.0097L35.9784 20.3018H31.8635L25.2749 13.8103L21.7547 16.2979V20.3018H18.7815V2.86365H21.7547V12.5772L23.8716 11.132V11.1332Z" fill="#060A0F"/>
<path d="M61.3575 8.12264C62.1424 7.34082 63.2603 6.84329 64.5923 6.84329H68.5644C71.7993 6.84329 74.4157 9.44937 74.4157 12.6714V20.3001H71.4425V12.6477C71.4425 11.0367 70.0867 9.82844 68.5644 9.82844L64.2117 9.80474C62.5467 9.80474 61.3575 11.2025 61.3575 12.6477V20.3001H58.3843V6.84216H61.3575V8.12151V8.12264Z" fill="#060A0F"/>
<path d="M79.6704 8.12264C80.4554 7.34082 81.5733 6.84329 82.9053 6.84329H86.8774C90.1123 6.84329 92.7287 9.44937 92.7287 12.6714V20.3001H89.7555V12.6477C89.7555 11.0367 88.3997 9.82844 86.8774 9.82844L82.5247 9.80474C80.8597 9.80474 79.6704 11.2025 79.6704 12.6477V20.3001H76.6973V6.84216H79.6704V8.12151V8.12264Z" fill="#060A0F"/>
</svg>
