<svg width="137" height="137" viewBox="0 0 137 137" fill="none" xmlns="http://www.w3.org/2000/svg">
<rect x="0.229492" y="0.0629883" width="136.23" height="136.23" fill="#060A0F"/>
<path d="M74.1206 70.19L69.2593 60.526L65.3037 60.0112L71.9118 73.1466L74.1206 70.19Z" fill="#3382F8"/>
<path d="M76.7054 73.3193H63.5559L62.126 76.335H76.7054V73.3193Z" fill="#3382F8"/>
<path d="M63.0152 64.2523L58.7373 73.6516L61.1453 76.2346L66.8809 63.7505L63.0152 64.2523Z" fill="#3382F8"/>
<path d="M41.408 68.5877C41.3886 67.9291 40.9024 67.406 40.2994 67.406H34.0757C33.4728 67.406 32.9671 67.9097 32.9671 68.5684C32.9671 69.227 33.4728 69.7501 34.0757 69.7501H40.6106C41.2524 69.7501 41.8359 69.9632 42.3416 70.3506C42.3999 70.3894 42.4388 70.4281 42.4972 70.4669C42.6528 70.6025 42.8862 70.8543 43.0223 71.0868C43.4113 71.668 43.6252 72.2879 43.6252 73.024C43.6252 74.7288 42.3999 76.298 40.6106 76.298H33.7645C31.9947 76.298 30.7305 74.7288 30.7305 73.024H32.9671C32.9671 73.6827 33.4728 74.2057 34.0757 74.2057H40.2994C40.8829 74.2057 41.3886 73.7021 41.3886 73.024C41.3886 72.346 40.8829 71.8617 40.2994 71.8617H33.7645C32.6754 71.8617 31.7029 71.203 31.1972 70.2538C30.9055 69.8082 30.7305 69.1883 30.7305 68.5684C30.7305 66.9023 31.9947 65.2944 33.7451 65.2944H40.6106C42.3805 65.2944 43.6447 66.9023 43.6447 68.5877H41.408Z" fill="white"/>
<path d="M49.6543 68.8029L54.5749 65.2965H58.6203L52.7662 69.5197L59.5539 76.3H56.1892L50.8018 70.992L47.9233 73.0261V76.3H45.4922V62.041H47.9233V69.9837L49.6543 68.802V68.8029Z" fill="white"/>
<path d="M80.3061 66.3415C80.948 65.7022 81.8621 65.2954 82.9512 65.2954H86.1992C88.8443 65.2954 90.9837 67.4263 90.9837 70.061V76.2989H88.5526V70.0416C88.5526 68.7243 87.444 67.7363 86.1992 67.7363L82.64 67.7169C81.2786 67.7169 80.3061 68.8599 80.3061 70.0416V76.2989H77.875V65.2944H80.3061V66.3405V66.3415Z" fill="white"/>
<path d="M95.2807 66.3415C95.9226 65.7022 96.8367 65.2954 97.9258 65.2954H101.174C103.819 65.2954 105.958 67.4263 105.958 70.061V76.2989H103.527V70.0416C103.527 68.7243 102.419 67.7363 101.174 67.7363L97.6146 67.7169C96.2532 67.7169 95.2807 68.8599 95.2807 70.0416V76.2989H92.8496V65.2944H95.2807V66.3405V66.3415Z" fill="white"/>
</svg>
