<svg width="25" height="27" viewBox="0 0 25 27" fill="none" xmlns="http://www.w3.org/2000/svg">
<path d="M7.38672 7.43848C8.91162 7.43848 10.1523 8.73972 10.1523 10.339C10.1523 11.429 9.55286 12.4299 8.6333 12.92C8.99878 15.2206 10.7006 17.0058 12.8949 17.3891C13.3615 16.4251 14.3154 15.7959 15.3555 15.7959C16.8804 15.7959 18.1211 17.0972 18.1211 18.6965C18.1211 20.2958 16.8804 21.597 15.3555 21.597C9.4364 21.597 4.62109 16.5464 4.62109 10.339C4.62109 8.73972 5.86182 7.43848 7.38672 7.43848Z" fill="#3382F8"/>
<path d="M13.6211 5.0791H18.8711C20.1137 5.0791 21.1211 6.1356 21.1211 7.43886V9.79861C21.1211 11.1019 20.1137 12.1584 18.8711 12.1584H17.3711L14.2209 14.4394C14.1543 14.492 14.0752 14.5181 13.9961 14.5181C13.9913 14.5174 13.9862 14.5177 13.9811 14.5181C13.7742 14.5181 13.6061 14.3422 13.6061 14.1248C13.6061 14.0426 13.6302 13.9662 13.6713 13.9032L14.3711 12.1584H13.6211C12.3785 12.1584 11.3711 11.1019 11.3711 9.79861V7.43886C11.3711 6.1356 12.3785 5.0791 13.6211 5.0791Z" fill="#3382F8"/>
</svg>
