<svg width="17" height="17" viewBox="0 0 17 17" fill="none" xmlns="http://www.w3.org/2000/svg">
<path fill-rule="evenodd" clip-rule="evenodd" d="M8.20842 15.5683C11.8903 15.5683 14.8751 12.5835 14.8751 8.90159C14.8751 5.21969 11.8903 2.23492 8.20842 2.23492C4.52652 2.23492 1.54175 5.21969 1.54175 8.90159C1.54175 12.5835 4.52652 15.5683 8.20842 15.5683ZM12.1775 9.40151H10.1454C10.0534 9.75902 9.86506 10.0778 9.60967 10.3286L10.6258 12.0887C11.4623 11.4533 12.041 10.496 12.1775 9.40151ZM9.76024 12.5894L8.74391 10.8291C8.57347 10.8763 8.39389 10.9016 8.20842 10.9016C8.02292 10.9016 7.84332 10.8763 7.67288 10.8291L6.65655 12.5894C7.13374 12.7905 7.6581 12.9016 8.20842 12.9016C8.75872 12.9016 9.28306 12.7905 9.76024 12.5894ZM5.79094 12.0887L6.80712 10.3286C6.55175 10.0778 6.3634 9.759 6.2714 9.40151H4.23935C4.37581 10.496 4.95449 11.4532 5.79094 12.0887ZM12.1775 8.40151H10.1454C10.0534 8.04405 9.86501 7.72528 9.60964 7.47451L10.6258 5.71444C11.4623 6.34986 12.041 7.30702 12.1775 8.40151ZM9.7602 5.21374C9.28303 5.01271 8.7587 4.90159 8.20842 4.90159C7.65811 4.90159 7.13377 5.01272 6.65659 5.21375L7.67292 6.97409C7.84336 6.92684 8.02294 6.90159 8.20842 6.90159C8.39388 6.90159 8.57345 6.92684 8.74387 6.97407L9.7602 5.21374ZM6.80716 7.47454L5.79098 5.71447C4.95455 6.34988 4.37587 7.30703 4.23937 8.40151H6.27145C6.36346 8.04407 6.55181 7.7253 6.80716 7.47454Z" fill="white"/>
</svg>
