<svg width="25" height="25" viewBox="0 0 25 25" fill="none" xmlns="http://www.w3.org/2000/svg">
<path d="M12.957 2.44629C14.8022 2.44629 16.2863 2.44629 17.4971 2.53412L14.0556 7.69631H9.35842L12.8584 2.44629H12.957Z" fill="#060A0F"/>
<path d="M4.4215 3.91075C5.67386 2.65839 7.57897 2.47701 11.0527 2.45074L7.55564 7.69631H3.06121C3.20846 5.93222 3.56383 4.76842 4.4215 3.91075Z" fill="#060A0F"/>
<path fill-rule="evenodd" clip-rule="evenodd" d="M2.95703 12.4463C2.95703 11.2095 2.95703 10.135 2.98348 9.19631H22.9306C22.957 10.135 22.957 11.2095 22.957 12.4463C22.957 17.1603 22.957 19.5174 21.4926 20.9818C20.0281 22.4463 17.6711 22.4463 12.957 22.4463C8.24299 22.4463 5.88596 22.4463 4.4215 20.9818C2.95703 19.5174 2.95703 17.1603 2.95703 12.4463ZM13.971 13.0315C15.295 13.8858 15.957 14.3129 15.957 14.9463C15.957 15.5796 15.295 16.0068 13.971 16.8611C12.6289 17.727 11.9578 18.16 11.4574 17.8421C10.957 17.5242 10.957 16.6649 10.957 14.9463C10.957 13.2277 10.957 12.3684 11.4574 12.0505C11.9578 11.7326 12.6289 12.1655 13.971 13.0315Z" fill="#060A0F"/>
<path d="M22.8528 7.69631C22.7056 5.93222 22.3502 4.76842 21.4926 3.91075C20.8952 3.31343 20.1494 2.95974 19.1557 2.75032L15.8584 7.69631H22.8528Z" fill="#060A0F"/>
</svg>
