<svg width="212" height="50" viewBox="0 0 212 50" fill="none" xmlns="http://www.w3.org/2000/svg">
<path d="M121.206 31.4322L107.627 4.43668L95.4131 0.398438L115.036 39.6912L121.206 31.4322Z" fill="#3382F8"/>
<path d="M130.017 40.6035H91.7705L87.6113 49.0046H130.017V40.6035Z" fill="#3382F8"/>
<path d="M90.6809 15.279L77.6951 41.2422L84.4212 48.5721L101.518 14.2131L90.6809 15.279Z" fill="#3382F8"/>
<path d="M29.8267 27.3675C29.7723 25.5276 28.4141 24.0665 26.7299 24.0665H9.3446C7.6604 24.0665 6.24784 25.4735 6.24784 27.3134C6.24784 29.1533 7.6604 30.6144 9.3446 30.6144H27.5992C29.392 30.6144 31.0219 31.2096 32.4345 32.2919C32.5975 32.4002 32.7061 32.5084 32.8691 32.6166C33.3037 32.9954 33.9557 33.6989 34.336 34.3483C35.4226 35.9717 36.0202 37.7034 36.0202 39.7598C36.0202 44.5219 32.5975 48.9052 27.5992 48.9052H8.47534C3.53139 48.9052 0 44.5219 0 39.7598H6.24784C6.24784 41.5997 7.6604 43.0608 9.3446 43.0608H26.7299C28.3598 43.0608 29.7723 41.6538 29.7723 39.7598C29.7723 37.8658 28.3598 36.5129 26.7299 36.5129H8.47534C5.43291 36.5129 2.71645 34.673 1.3039 32.0214C0.488962 30.7767 0 29.045 0 27.3134C0 22.6595 3.53139 18.168 8.42101 18.168H27.5992C32.5431 18.168 36.0745 22.6595 36.0745 27.3675H29.8267Z" fill="white"/>
<path d="M52.8598 27.9638L66.6051 18.1691H77.9055L61.5525 29.9661L80.5133 48.9063H71.1144L56.0652 34.0788L48.0245 39.7609V48.9063H41.2334V9.0752H48.0245V31.2623L52.8598 27.9613V27.9638Z" fill="white"/>
<path d="M140.085 21.0908C141.878 19.305 144.431 18.1686 147.474 18.1686H156.547C163.936 18.1686 169.912 24.1212 169.912 31.4808V48.9058H163.121V31.4267C163.121 27.7469 160.024 24.9871 156.547 24.9871L146.605 24.9329C142.802 24.9329 140.085 28.1257 140.085 31.4267V48.9058H133.294V18.166H140.085V21.0882V21.0908Z" fill="white"/>
<path d="M181.913 21.0908C183.706 19.305 186.26 18.1686 189.302 18.1686H198.375C205.764 18.1686 211.74 24.1212 211.74 31.4808V48.9058H204.949V31.4267C204.949 27.7469 201.852 24.9871 198.375 24.9871L188.433 24.9329C184.63 24.9329 181.913 28.1257 181.913 31.4267V48.9058H175.122V18.166H181.913V21.0882V21.0908Z" fill="white"/>
</svg>
